<svg width="17" height="20" viewBox="0 0 17 20" fill="none" xmlns="http://www.w3.org/2000/svg">
<path d="M4.07137 9.06547C4.01057 9.06548 3.9512 9.04705 3.9011 9.01262C1.86438 7.61781 0.448481 5.28606 0.0164893 2.61531C-0.0131034 2.43348 -0.00277565 2.24739 0.0467556 2.06996C0.0962869 1.89252 0.183836 1.72799 0.303325 1.58777C0.422275 1.44781 0.570253 1.33541 0.736991 1.25837C0.903728 1.18132 1.08523 1.14148 1.26891 1.1416H3.1434C3.22344 1.1416 3.30021 1.1734 3.35681 1.23C3.4134 1.28659 3.4452 1.36336 3.4452 1.4434C3.4452 1.52344 3.4134 1.6002 3.35681 1.6568C3.30021 1.7134 3.22344 1.7452 3.1434 1.7452H1.26891C1.17267 1.74512 1.07756 1.766 0.990195 1.80637C0.902828 1.84674 0.825294 1.90564 0.762974 1.97898C0.700212 2.05266 0.654234 2.13912 0.628231 2.23234C0.602227 2.32557 0.596821 2.42334 0.612388 2.51887C1.01813 5.02731 2.34114 7.21266 4.24219 8.51461C4.29544 8.55102 4.33562 8.60353 4.35684 8.66445C4.37806 8.72536 4.3792 8.79148 4.3601 8.85309C4.34099 8.9147 4.30265 8.96857 4.25068 9.00679C4.19872 9.04501 4.13588 9.06558 4.07137 9.06547ZM12.129 9.06547C12.0645 9.06557 12.0017 9.045 11.9498 9.00677C11.8978 8.96855 11.8595 8.91469 11.8404 8.85309C11.8213 8.79149 11.8224 8.72539 11.8436 8.66448C11.8648 8.60357 11.905 8.55106 11.9582 8.51465C13.8592 7.2127 15.1823 5.02734 15.588 2.51895C15.6036 2.42341 15.5982 2.32563 15.5722 2.2324C15.5461 2.13916 15.5002 2.05271 15.4374 1.97902C15.3751 1.90568 15.2975 1.84678 15.2102 1.80641C15.1228 1.76604 15.0277 1.74516 14.9314 1.74523H13.057C12.9769 1.74523 12.9002 1.71344 12.8436 1.65684C12.787 1.60024 12.7552 1.52348 12.7552 1.44344C12.7552 1.3634 12.787 1.28663 12.8436 1.23004C12.9002 1.17344 12.9769 1.14164 13.057 1.14164H14.9314C15.1151 1.14152 15.2966 1.18135 15.4634 1.25839C15.6301 1.33543 15.7781 1.44782 15.897 1.58777C16.0165 1.728 16.1041 1.89254 16.1536 2.06998C16.2031 2.24742 16.2134 2.43352 16.1839 2.61535C15.7518 5.28613 14.3359 7.61785 12.2992 9.01266C12.2491 9.04707 12.1898 9.06548 12.129 9.06547Z" fill="#1C2127"/>
<path d="M10.2812 15.3772C9.60443 14.7288 9.13557 13.8013 8.95213 12.8641L8.77686 11.9688C8.56857 12.0557 8.34014 12.104 8.10029 12.104C7.86045 12.104 7.63205 12.0557 7.42373 11.9688L7.24846 12.8641C7.06502 13.8013 6.59615 14.7288 5.91943 15.3772H10.2812Z" fill="#1C2127"/>
<path d="M10.2812 15.3772C9.60443 14.7288 9.13557 13.8013 8.95213 12.8641L8.77686 11.9688C8.56857 12.0557 8.34014 12.104 8.10029 12.104C7.86045 12.104 7.63205 12.0557 7.42373 11.9688L7.24846 12.8641C7.06502 13.8013 6.59615 14.7288 5.91943 15.3772H10.2812Z" fill="#1C2127"/>
<path d="M8.1826 12.1019C7.9229 12.1144 7.66367 12.0689 7.42373 11.9688L7.24846 12.8642C7.06502 13.8013 6.59615 14.7288 5.91943 15.3772H7.16869C7.63287 14.7288 7.95443 13.8013 8.08025 12.8642L8.1826 12.1019Z" fill="#1C2127"/>
<path d="M8.10016 10.792C7.48238 10.792 6.89113 10.6787 6.3457 10.4722C6.41117 11.3843 7.17137 12.1444 8.10016 12.1444C9.02898 12.1444 9.78918 11.3843 9.85461 10.4722C9.30918 10.6787 8.71793 10.792 8.10016 10.792Z" fill="#1C2127"/>
<path d="M8.10016 10.792C7.48238 10.792 6.89113 10.6787 6.3457 10.4722C6.41117 11.3843 7.17137 12.1444 8.10016 12.1444C9.02898 12.1444 9.78918 11.3843 9.85461 10.4722C9.30918 10.6787 8.71793 10.792 8.10016 10.792Z" fill="#1C2127"/>
<path d="M7.57734 10.7644C7.15595 10.7203 6.742 10.622 6.3457 10.4722C6.41117 11.3843 7.17137 12.1444 8.10016 12.1444C8.27848 12.1444 8.45051 12.1161 8.61269 12.0644C8.08754 11.8306 7.69367 11.3409 7.57734 10.7644Z" fill="#1C2127"/>
<path d="M8.10035 1.18066H3.14355V5.87504C3.14355 8.61258 5.36277 10.8318 8.10031 10.8318C10.8379 10.8318 13.0571 8.61258 13.0571 5.87504V1.18066H8.10035Z" fill="#1C2127"/>
<path d="M8.10035 1.18066H3.14355V5.87504C3.14355 8.61258 5.36277 10.8318 8.10031 10.8318C10.8379 10.8318 13.0571 8.61258 13.0571 5.87504V1.18066H8.10035Z" fill="#1C2127"/>
<path d="M4.89801 5.875V1.18066H3.14355V5.87504C3.14355 8.61258 5.36277 10.8318 8.10031 10.8318C8.39965 10.8318 8.69281 10.8053 8.97754 10.7544C6.6584 10.3402 4.89801 8.3132 4.89801 5.875ZM11.5602 15.3366H4.64039C4.41215 15.3366 4.22715 15.5216 4.22715 15.7498V16.5979H11.9735V15.7498C11.9735 15.5216 11.7885 15.3366 11.5602 15.3366Z" fill="#1C2127"/>
<path d="M7.47732 15.3369H4.64029C4.41205 15.3369 4.22705 15.522 4.22705 15.7502V16.5982H7.06408V15.7502C7.06408 15.522 7.24908 15.3369 7.47732 15.3369Z" fill="#1C2127"/>
<path d="M3.14355 1.07324V2.365H13.0571V1.07324H8.10035H3.14355Z" fill="#1C2127"/>
<path d="M3.14355 1.07324V2.365H13.0571V1.07324H8.10035H3.14355Z" fill="#1C2127"/>
<path d="M3.14355 1.07324V2.365H4.89805V1.07324H4.02078H3.14355Z" fill="#1C2127"/>
<path d="M13.1494 0H3.05073C2.82249 0 2.63745 0.185039 2.63745 0.413281V0.767617C2.63745 0.995859 2.82249 1.1809 3.05073 1.1809H13.1494C13.3776 1.1809 13.5626 0.995859 13.5626 0.767617V0.413281C13.5626 0.185039 13.3776 0 13.1494 0Z" fill="#1C2127"/>
<path d="M13.1494 0H3.05073C2.82249 0 2.63745 0.185039 2.63745 0.413281V0.767617C2.63745 0.995859 2.82249 1.1809 3.05073 1.1809H13.1494C13.3776 1.1809 13.5626 0.995859 13.5626 0.767617V0.413281C13.5626 0.185039 13.3776 0 13.1494 0Z" fill="#1C2127"/>
<path d="M4.46867 0.767617V0.413281C4.46867 0.185039 4.65371 0 4.88191 0H3.05094C2.8227 0 2.6377 0.185039 2.6377 0.413281V0.767656C2.6377 0.995898 2.82273 1.1809 3.05094 1.1809H4.88191C4.65371 1.1809 4.46867 0.995859 4.46867 0.767617Z" fill="#1C2127"/>
<path d="M13.0568 17.3985C13.0568 16.912 12.6624 16.5176 12.1759 16.5176H3.93168C3.44516 16.5176 3.05078 16.912 3.05078 17.3985V18.8995H13.0569V17.3985H13.0568Z" fill="#1C2127"/>
<path d="M6.76871 16.5176H3.93168C3.44516 16.5176 3.05078 16.912 3.05078 17.3985V18.8995H5.88781V17.3985C5.88781 16.912 6.28223 16.5176 6.76871 16.5176Z" fill="#1C2127"/>
<path d="M13.1494 18.8193H3.05073C2.82249 18.8193 2.63745 19.0044 2.63745 19.2326V19.587C2.63745 19.8152 2.82249 20.0002 3.05073 20.0002H13.1494C13.3776 20.0002 13.5626 19.8152 13.5626 19.587V19.2326C13.5626 19.0043 13.3776 18.8193 13.1494 18.8193Z" fill="#1C2127"/>
<path d="M5.47473 19.5869V19.2326C5.47473 19.0043 5.65977 18.8193 5.88797 18.8193H3.05094C2.8227 18.8193 2.6377 19.0044 2.6377 19.2326V19.5869C2.6377 19.8152 2.82273 20.0002 3.05094 20.0002H5.88797C5.65973 20.0002 5.47473 19.8152 5.47473 19.5869Z" fill="#1C2127"/>
</svg>
