<svg width="14" height="18" viewBox="0 0 14 18" fill="none" xmlns="http://www.w3.org/2000/svg">
<path d="M12.0412 0H1.59742C0.746841 0 0 0.699729 0 1.52798V16.9775C0 17.2548 0.0771629 17.4858 0.201523 17.6644C0.273771 17.7684 0.37023 17.8533 0.482589 17.9118C0.594948 17.9702 0.719838 18.0005 0.8465 18C1.08928 18 1.34776 17.8919 1.58647 17.688L6.25902 13.7208C6.40333 13.5976 6.61062 13.5269 6.82615 13.5269C7.0416 13.5269 7.24847 13.5976 7.3932 13.7212L12.0501 17.6874C12.2897 17.8919 12.5303 18.0001 12.7727 18.0001C13.1825 18.0001 13.582 17.684 13.582 16.9776V1.52798C13.582 0.699729 12.8918 0 12.0412 0Z" fill="#1C2127"/>
</svg>
