<svg width="15" height="18" viewBox="0 0 15 18" fill="none" xmlns="http://www.w3.org/2000/svg">
<path d="M1.52312 17.5416C1.29193 17.5407 1.06388 17.4881 0.855683 17.3876C0.60048 17.2677 0.384577 17.0777 0.233094 16.8399C0.0816118 16.6021 0.000778617 16.3261 0 16.0442V1.49754C0.001115 1.29904 0.0414603 1.10272 0.118716 0.919874C0.195971 0.737024 0.308613 0.57125 0.450162 0.432086C0.591712 0.292923 0.759376 0.183115 0.943513 0.108978C1.12765 0.0348417 1.32463 -0.00216131 1.52312 9.75176e-05H13.5027C13.8991 0.00234377 14.2787 0.160831 14.5591 0.441171C14.8394 0.721511 14.9979 1.10109 15.0001 1.49754V16.0442C14.9946 16.3151 14.9156 16.5795 14.7715 16.8091C14.6275 17.0387 14.4239 17.2249 14.1824 17.3479C13.9408 17.4709 13.6704 17.526 13.4 17.5073C13.1296 17.4887 12.8694 17.397 12.647 17.2421L7.68403 13.5199C7.64761 13.4907 7.60234 13.4748 7.55568 13.4748C7.50902 13.4748 7.46375 13.4907 7.42733 13.5199L2.42158 17.2421C2.16181 17.4354 1.84692 17.5404 1.52312 17.5416ZM1.52312 1.28362C1.46638 1.28362 1.41197 1.30616 1.37185 1.34628C1.33173 1.3864 1.30919 1.44081 1.30919 1.49754V16.0442C1.30889 16.0837 1.32004 16.1226 1.3413 16.156C1.36255 16.1894 1.393 16.2159 1.42899 16.2324C1.46175 16.2548 1.50052 16.2669 1.54023 16.2669C1.57994 16.2669 1.61871 16.2548 1.65147 16.2324L6.65721 12.4931C6.91751 12.3013 7.23235 12.1978 7.55568 12.1978C7.87901 12.1978 8.19385 12.3013 8.45415 12.4931L13.4171 16.2153C13.4499 16.2377 13.4886 16.2497 13.5283 16.2497C13.5681 16.2497 13.6068 16.2377 13.6396 16.2153C13.6756 16.1988 13.706 16.1723 13.7273 16.1389C13.7485 16.1055 13.7597 16.0666 13.7594 16.027V1.49754C13.76 1.46546 13.7535 1.43364 13.7401 1.40444C13.7268 1.37524 13.7071 1.34942 13.6825 1.32887C13.6578 1.30833 13.6288 1.29359 13.5977 1.28576C13.5666 1.27793 13.5341 1.2772 13.5027 1.28362H1.52312Z" fill="#1C2127"/>
</svg>
