<svg width="26" height="19" viewBox="0 0 26 19" fill="none" xmlns="http://www.w3.org/2000/svg">
<path d="M24.2218 7.6802C24.1778 7.59271 24.1104 7.51915 24.0271 7.46771C23.9438 7.41627 23.8478 7.38897 23.7499 7.38887H18.9999V8.44441H24.6039L24.2218 7.6802ZM16.8329 0.291333C16.7889 0.203841 16.7215 0.130274 16.6382 0.0788336C16.5549 0.0273935 16.459 0.000101329 16.361 0H8.97212C8.87421 0.000101329 8.77825 0.0273935 8.69494 0.0788336C8.61163 0.130274 8.54424 0.203841 8.50029 0.291333L8.11816 1.05554H17.215L16.8329 0.291333Z" fill="#A9A9A9"/>
<path d="M25.309 9.90657C25.3006 9.87278 25.2964 9.83903 25.2827 9.80841C25.1993 9.62791 25.0177 9.5002 24.8055 9.5002H17.9445V2.63907C17.9445 2.59578 17.9297 2.55778 17.9202 2.5177C17.9117 2.48391 17.9075 2.45016 17.8938 2.41953C17.8104 2.23903 17.6288 2.11133 17.4167 2.11133H7.91667C7.7045 2.11133 7.524 2.23903 7.43954 2.41953C7.42583 2.45016 7.42054 2.48391 7.41317 2.5177C7.40367 2.55783 7.38887 2.59583 7.38887 2.63907V8.44461H0.527794C0.315628 8.44461 0.135128 8.57232 0.0506667 8.75282C0.0369609 8.78344 0.0316667 8.81719 0.0242943 8.85098C0.0147943 8.89116 0 8.92916 0 8.9724V18.4724C0 18.7627 0.236461 19.0002 0.527794 19.0002H24.8056C25.0969 19.0002 25.3334 18.7627 25.3334 18.4724V10.028C25.3333 9.9847 25.3185 9.9467 25.309 9.90657ZM5.27779 14.7769V14.7779C5.56913 14.7779 5.80559 15.0144 5.80559 15.3057C5.80559 15.5971 5.56913 15.8335 5.27779 15.8335H3.16667C3.06223 15.8335 2.96015 15.8025 2.87334 15.7445C2.78653 15.6864 2.7189 15.6039 2.679 15.5074C2.63882 15.411 2.6282 15.3048 2.6485 15.2024C2.6688 15.0999 2.7191 15.0059 2.793 14.9321L4.15783 13.5672C4.53887 13.1852 4.75 12.6774 4.75 12.138C4.75 11.8477 4.51354 11.6102 4.22221 11.6102C3.93087 11.6102 3.69441 11.8477 3.69441 12.138C3.69441 12.4294 3.45795 12.6658 3.16662 12.6658C2.87528 12.6658 2.63882 12.4294 2.63882 12.138C2.63882 11.2651 3.3492 10.5547 4.22216 10.5547C5.09512 10.5547 5.80549 11.2651 5.80549 12.138C5.80549 12.9582 5.48566 13.7319 4.90403 14.3135L4.44066 14.7769H5.27779ZM13.7233 11.0835H13.7223C13.7223 11.3749 13.4858 11.6113 13.1945 11.6113C12.9031 11.6113 12.6667 11.3749 12.6667 11.0835V7.07983L12.5125 7.23396C12.3067 7.43979 11.9721 7.43979 11.7662 7.23396C11.5604 7.02812 11.5604 6.69349 11.7662 6.48766L12.8218 5.43212C12.8954 5.358 12.9895 5.30756 13.092 5.28725C13.1945 5.26694 13.3007 5.27769 13.3971 5.31812C13.4936 5.35802 13.5761 5.42565 13.6342 5.51246C13.6922 5.59927 13.7232 5.70135 13.7232 5.80579V11.0835H13.7233ZM22.6945 15.3057C22.6945 16.1787 21.9841 16.8891 21.1111 16.8891C20.2382 16.8891 19.5278 16.1787 19.5278 15.3057C19.5278 15.0144 19.7643 14.7779 20.0556 14.7779C20.3469 14.7779 20.5834 15.0144 20.5834 15.3057C20.5833 15.596 20.8198 15.8335 21.1111 15.8335C21.4025 15.8335 21.6389 15.596 21.6389 15.3057C21.6389 15.0154 21.4025 14.7779 21.1111 14.7779C20.8198 14.7779 20.5833 14.5415 20.5833 14.2502C20.5833 13.9589 20.8198 13.7224 21.1111 13.7224C21.4025 13.7224 21.6389 13.4849 21.6389 13.1946C21.6389 12.9043 21.4025 12.6668 21.1111 12.6668C20.8198 12.6668 20.5833 12.9044 20.5833 13.1947C20.5833 13.486 20.3469 13.7225 20.0555 13.7225C19.7642 13.7225 19.5277 13.486 19.5277 13.1947C19.5277 12.3217 20.2381 11.6113 21.1111 11.6113C21.984 11.6113 22.6944 12.3217 22.6944 13.1947C22.6944 13.6 22.5414 13.9695 22.2901 14.2502C22.5414 14.531 22.6945 14.9004 22.6945 15.3057Z" fill="#A9A9A9"/>
<path d="M6.33345 6.3335H1.58345C1.48554 6.3336 1.38958 6.36089 1.30627 6.41233C1.22296 6.46377 1.15557 6.53734 1.11162 6.62483L0.729492 7.38903H6.33345V6.3335Z" fill="#A9A9A9"/>
</svg>
