<svg width="24" height="24" viewBox="0 0 24 24" fill="none" xmlns="http://www.w3.org/2000/svg">
<path fill-rule="evenodd" clip-rule="evenodd" d="M11.2193 1.53649C12.8593 1.53649 14.4171 1.88855 15.8213 2.52104L15.0869 3.25462L15.6209 5.73241L14.8346 6.51714C13.7717 5.89987 12.5369 5.54621 11.2193 5.54621C7.2375 5.54621 4.00967 8.77404 4.00967 12.7558C4.00967 16.7376 7.2375 19.9654 11.2193 19.9654C15.201 19.9654 18.4288 16.7376 18.4288 12.7558C18.4288 11.4436 18.0782 10.2133 17.4656 9.15354L18.2464 8.3744L20.7452 8.91292L21.4701 8.18887C22.0926 9.58394 22.4386 11.1295 22.4386 12.7558C22.4386 18.952 17.4156 23.9751 11.2193 23.9751C5.02306 23.9751 0 18.952 0 12.7558C0 6.55955 5.02306 1.53649 11.2193 1.53649ZM11.2193 10.7986C10.138 10.7986 9.26211 11.6745 9.26211 12.7557C9.26211 13.8371 10.138 14.7129 11.2193 14.7129C12.3006 14.7129 13.1764 13.8371 13.1764 12.7557C13.1769 12.4527 13.1067 12.1538 12.9714 11.8826L17.8472 7.01703L20.3452 7.55539L23.9235 3.97716C23.9922 3.9084 24.0163 3.81426 23.9887 3.7209C23.9612 3.62754 23.8901 3.56152 23.7949 3.54101L21.0503 2.94953L20.4587 0.20496C20.4382 0.109839 20.3722 0.038693 20.2789 0.0111458C20.1855 -0.0163496 20.0914 0.00762473 20.0226 0.0764409L16.4444 3.65467L16.9786 6.13329L12.0961 11.0056C11.824 10.869 11.5237 10.7982 11.2193 10.7986ZM11.2193 6.78894C7.92385 6.78894 5.25239 9.46039 5.25239 12.7558C5.25239 16.0512 7.92385 18.7227 11.2193 18.7227C14.5147 18.7227 17.1861 16.0512 17.1861 12.7558C17.1861 11.7893 16.9561 10.8765 16.5481 10.0691L14.3768 12.2358C14.405 12.4077 14.4191 12.5816 14.4191 12.7558C14.4191 14.5231 12.9865 15.9557 11.2193 15.9557C9.45204 15.9557 8.01938 14.523 8.01938 12.7558C8.01938 10.9886 9.45199 9.55593 11.2193 9.55593C11.3987 9.55593 11.5746 9.57094 11.7459 9.59932L13.9172 7.43257C13.107 7.02107 12.1903 6.78894 11.2193 6.78894Z" fill="#A9A9A9"/>
</svg>
