<svg width="21" height="20" viewBox="0 0 21 20" fill="none" xmlns="http://www.w3.org/2000/svg">
<path d="M4.86888 3.80712L13.1747 1.53997L12.7349 0.650889C12.4471 0.0729883 11.7452 -0.165659 11.1673 0.122122L3.73179 3.80712H4.86888ZM15.7531 1.60548C15.6501 1.60548 15.5472 1.61952 15.4442 1.64759L13.493 2.18104L7.53377 3.80712H17.2458L16.8808 2.46882C16.7404 1.94707 16.2678 1.60548 15.7531 1.60548ZM18.4648 4.62601H1.17218C0.80251 4.62601 0.472615 4.7968 0.257365 5.06587C0.159098 5.18987 0.0842285 5.33259 0.0421143 5.48935C0.0163778 5.58762 0 5.69056 0 5.79585V18.8302C0 19.476 0.524088 20.0001 1.16984 20.0001H18.4624C19.1082 20.0001 19.6323 19.476 19.6323 18.8302V15.5664H12.6904C11.5931 15.5664 10.7017 14.6749 10.7017 13.5776V10.9759C10.7017 10.4378 10.9169 9.9488 11.2656 9.59083C11.5744 9.27261 11.9885 9.05736 12.4518 9.00355C12.529 8.99421 12.6085 8.98951 12.6881 8.98951H19.6323V5.79585C19.6346 5.1501 19.1105 4.62601 18.4648 4.62601Z" fill="white"/>
<path d="M20.4534 10.1078C20.3364 10.0002 20.1984 9.9183 20.0439 9.86449C19.9246 9.82474 19.7983 9.80134 19.6649 9.80134H12.6903C12.0446 9.80134 11.5205 10.3254 11.5205 10.9712V13.5752C11.5205 14.221 12.0446 14.7451 12.6903 14.7451H19.6649C19.7983 14.7451 19.9246 14.7217 20.0439 14.6819C20.1984 14.6304 20.3364 14.5462 20.4534 14.4386C20.6874 14.2257 20.8348 13.9168 20.8348 13.5752V10.9712C20.8348 10.6296 20.6874 10.3207 20.4534 10.1078ZM15.133 12.506C15.133 12.8289 14.8709 13.0909 14.548 13.0909H14.1597C13.8368 13.0909 13.5747 12.8289 13.5747 12.506V12.1176C13.5747 11.9304 13.6613 11.7643 13.7993 11.659C13.8999 11.5818 14.024 11.5327 14.1597 11.5327H14.548C14.8709 11.5327 15.133 11.7947 15.133 12.1176V12.506Z" fill="white"/>
</svg>
