<svg width="17" height="20" viewBox="0 0 17 20" fill="none" xmlns="http://www.w3.org/2000/svg">
<path d="M16.1459 14.0942C15.5242 13.5697 15.0247 12.9157 14.6823 12.178C14.3398 11.4403 14.1627 10.6367 14.1634 9.82333V7.5C14.1634 4.5675 11.9851 2.14 9.1634 1.73333V0.833333C9.1634 0.61232 9.0756 0.400358 8.91932 0.244078C8.76304 0.0877974 8.55108 0 8.33007 0C8.10906 0 7.89709 0.0877974 7.74081 0.244078C7.58453 0.400358 7.49674 0.61232 7.49674 0.833333V1.73333C4.67424 2.14 2.49674 4.5675 2.49674 7.5V9.82333C2.49706 10.6383 2.3191 11.4435 1.97533 12.1824C1.63156 12.9213 1.13032 13.5761 0.506735 14.1008C0.281368 14.2951 0.120738 14.5536 0.0463563 14.8417C-0.0280256 15.1298 -0.0126081 15.4337 0.090544 15.7128C0.193696 15.9919 0.379658 16.2328 0.623527 16.4033C0.867395 16.5738 1.15753 16.6657 1.45507 16.6667H15.2051C16.0092 16.6667 16.6634 16.0125 16.6634 15.2083C16.6634 14.7817 16.4776 14.3783 16.1459 14.0942ZM8.33007 20C9.05009 19.999 9.74775 19.7498 10.3055 19.2944C10.8632 18.839 11.2468 18.2053 11.3917 17.5H5.2684C5.41333 18.2053 5.79697 18.839 6.35468 19.2944C6.91239 19.7498 7.61005 19.999 8.33007 20Z" fill="white"/>
</svg>
