<svg width="10" height="12" viewBox="0 0 10 12" fill="none" xmlns="http://www.w3.org/2000/svg">
<path d="M5.25304 12C5.02804 12 4.87804 11.925 4.72804 11.775L0.228039 7.275C0.00303903 7.05 -0.0719612 6.75 0.0780388 6.45C0.153039 6.15 0.453039 6 0.753039 6H3.00304C3.60304 6 4.20304 5.775 4.57804 5.325C5.02804 4.95 5.25304 4.35 5.25304 3.75C5.25304 3.15 5.02804 2.55 4.57804 2.175C4.20304 1.725 3.60304 1.5 3.00304 1.5H0.753039C0.303039 1.5 0.00303889 1.2 0.00303889 0.75C0.00303889 0.3 0.303039 0 0.753039 0H9.00304C9.45304 0 9.75304 0.3 9.75304 0.75C9.75304 1.2 9.45304 1.5 9.00304 1.5H6.00304C6.45304 2.175 6.75304 2.925 6.75304 3.75C6.75304 4.725 6.37804 5.7 5.62804 6.375C4.95304 7.125 3.97804 7.5 3.00304 7.5H2.55304L5.77804 10.725C6.07804 11.025 6.07804 11.475 5.77804 11.775C5.62804 11.925 5.47804 12 5.25304 12Z" fill="white"/>
<path d="M9.00293 4.5H0.75293C0.30293 4.5 0.00292969 4.2 0.00292969 3.75C0.00292969 3.3 0.30293 3 0.75293 3H9.00293C9.45293 3 9.75293 3.3 9.75293 3.75C9.75293 4.2 9.45293 4.5 9.00293 4.5Z" fill="white"/>
</svg>
