<svg width="20" height="24" viewBox="0 0 20 24" fill="none" xmlns="http://www.w3.org/2000/svg">
<path d="M4.88565 10.8783C4.81269 10.8783 4.74145 10.8562 4.68132 10.8148C2.23726 9.14108 0.538178 6.34297 0.0197872 3.13808C-0.0157241 2.91989 -0.00333078 2.69658 0.0561068 2.48366C0.115544 2.27073 0.220603 2.07329 0.36399 1.90504C0.50673 1.73708 0.684303 1.6022 0.884389 1.50975C1.08447 1.41729 1.30228 1.36948 1.52269 1.36963H3.77208C3.86813 1.36963 3.96025 1.40778 4.02817 1.4757C4.09608 1.54362 4.13424 1.63574 4.13424 1.73179C4.13424 1.82784 4.09608 1.91995 4.02817 1.98787C3.96025 2.05579 3.86813 2.09394 3.77208 2.09394H1.52269C1.4072 2.09386 1.29307 2.11891 1.18823 2.16735C1.08339 2.2158 0.990353 2.28648 0.915568 2.37449C0.840255 2.4629 0.785081 2.56665 0.753877 2.67852C0.722673 2.79039 0.716186 2.90772 0.734865 3.02235C1.22176 6.03247 2.80937 8.65489 5.09063 10.2172C5.15453 10.2609 5.20275 10.3239 5.22821 10.397C5.25368 10.4701 5.25505 10.5495 5.23212 10.6234C5.20919 10.6973 5.16318 10.762 5.10082 10.8079C5.03847 10.8537 4.96305 10.8784 4.88565 10.8783ZM14.5548 10.8783C14.4774 10.8784 14.402 10.8537 14.3397 10.8078C14.2774 10.762 14.2314 10.6973 14.2084 10.6234C14.1855 10.5495 14.1869 10.4702 14.2123 10.3971C14.2378 10.324 14.286 10.261 14.3498 10.2173C16.6311 8.65494 18.2187 6.03252 18.7056 3.02244C18.7243 2.9078 18.7178 2.79047 18.6866 2.67859C18.6554 2.5667 18.6002 2.46295 18.5249 2.37454C18.4501 2.28653 18.357 2.21584 18.2522 2.1674C18.1474 2.11895 18.0332 2.0939 17.9177 2.09399H15.6683C15.5723 2.09399 15.4802 2.05583 15.4123 1.98792C15.3443 1.92 15.3062 1.82788 15.3062 1.73183C15.3062 1.63578 15.3443 1.54367 15.4123 1.47575C15.4802 1.40783 15.5723 1.36968 15.6683 1.36968H17.9177C18.1381 1.36953 18.356 1.41733 18.556 1.50978C18.7561 1.60222 18.9337 1.7371 19.0764 1.90504C19.2198 2.07331 19.3249 2.27076 19.3843 2.48369C19.4437 2.69662 19.4561 2.91993 19.4206 3.13813C18.9022 6.34307 17.2031 9.14113 14.7591 10.8149C14.699 10.8562 14.6278 10.8783 14.5548 10.8783Z" fill="#FBC700"/>
<path d="M12.3371 18.4524C11.525 17.6743 10.9624 16.5614 10.7423 15.4368L10.5319 14.3623C10.282 14.4666 10.0079 14.5246 9.72006 14.5246C9.43225 14.5246 9.15817 14.4666 8.90818 14.3623L8.69786 15.4368C8.47773 16.5614 7.91509 17.6743 7.10303 18.4524H12.3371Z" fill="#FFE02F"/>
<path d="M12.3371 18.4524C11.525 17.6743 10.9624 16.5614 10.7423 15.4368L10.5319 14.3623C10.282 14.4666 10.0079 14.5246 9.72006 14.5246C9.43225 14.5246 9.15817 14.4666 8.90818 14.3623L8.69786 15.4368C8.47773 16.5614 7.91509 17.6743 7.10303 18.4524H12.3371Z" fill="#FFE02F"/>
<path d="M9.81907 14.5221C9.50743 14.5371 9.19636 14.4825 8.90843 14.3623L8.6981 15.4368C8.47797 16.5614 7.91533 17.6744 7.10327 18.4525H8.60238C9.1594 17.6744 9.54527 16.5614 9.69626 15.4368L9.81907 14.5221Z" fill="#FBC700"/>
<path d="M9.72033 12.9502C8.97901 12.9502 8.26951 12.8142 7.61499 12.5664C7.69355 13.6609 8.60579 14.573 9.72033 14.573C10.8349 14.573 11.7472 13.661 11.8257 12.5664C11.1712 12.8142 10.4617 12.9502 9.72033 12.9502Z" fill="#FBC700"/>
<path d="M9.72033 12.9502C8.97901 12.9502 8.26951 12.8142 7.61499 12.5664C7.69355 13.6609 8.60579 14.573 9.72033 14.573C10.8349 14.573 11.7472 13.661 11.8257 12.5664C11.1712 12.8142 10.4617 12.9502 9.72033 12.9502Z" fill="#FBC700"/>
<path d="M9.09271 12.917C8.58705 12.8641 8.0903 12.7463 7.61475 12.5664C7.69331 13.6609 8.60554 14.573 9.72009 14.573C9.93407 14.573 10.1405 14.5391 10.3351 14.477C9.70495 14.1965 9.23231 13.6089 9.09271 12.917Z" fill="#FFA812"/>
<path d="M9.72013 1.41699H3.77197V7.05024C3.77197 10.3353 6.43503 12.9984 9.72008 12.9984C13.0051 12.9984 15.6682 10.3353 15.6682 7.05024V1.41699H9.72013Z" fill="#FFE02F"/>
<path d="M9.72013 1.41699H3.77197V7.05024C3.77197 10.3353 6.43503 12.9984 9.72008 12.9984C13.0051 12.9984 15.6682 10.3353 15.6682 7.05024V1.41699H9.72013Z" fill="#FFE02F"/>
<path d="M5.87756 7.0502V1.41699H3.77222V7.05024C3.77222 10.3353 6.43528 12.9984 9.72033 12.9984C10.0795 12.9984 10.4313 12.9665 10.773 12.9055C7.99003 12.4085 5.87756 9.97604 5.87756 7.0502ZM13.8722 18.4041H5.56842C5.29453 18.4041 5.07253 18.6262 5.07253 18.9V19.9177H14.3682V18.9C14.3681 18.6262 14.1461 18.4041 13.8722 18.4041Z" fill="#FBC700"/>
<path d="M8.97259 18.4043H5.56816C5.29427 18.4043 5.07227 18.6263 5.07227 18.9002V19.9179H8.4767V18.9002C8.4767 18.6263 8.6987 18.4043 8.97259 18.4043Z" fill="#FFA812"/>
<path d="M3.77197 1.2876V2.83771H15.6682V1.2876H9.72013H3.77197Z" fill="#FBC700"/>
<path d="M3.77197 1.2876V2.83771H15.6682V1.2876H9.72013H3.77197Z" fill="#FBC700"/>
<path d="M3.77197 1.2876V2.83771H5.87736V1.2876H4.82464H3.77197Z" fill="#FFA812"/>
<path d="M15.7793 0H3.66098C3.38709 0 3.16504 0.222047 3.16504 0.495937V0.921141C3.16504 1.19503 3.38709 1.41708 3.66098 1.41708H15.7793C16.0532 1.41708 16.2752 1.19503 16.2752 0.921141V0.495937C16.2753 0.222047 16.0532 0 15.7793 0Z" fill="#FFE02F"/>
<path d="M15.7793 0H3.66098C3.38709 0 3.16504 0.222047 3.16504 0.495937V0.921141C3.16504 1.19503 3.38709 1.41708 3.66098 1.41708H15.7793C16.0532 1.41708 16.2752 1.19503 16.2752 0.921141V0.495937C16.2753 0.222047 16.0532 0 15.7793 0Z" fill="#FFE02F"/>
<path d="M5.36221 0.921141V0.495937C5.36221 0.222047 5.58426 0 5.8581 0H3.66093C3.38704 0 3.16504 0.222047 3.16504 0.495937V0.921188C3.16504 1.19508 3.38709 1.41708 3.66093 1.41708H5.8581C5.58426 1.41708 5.36221 1.19503 5.36221 0.921141Z" fill="#FBC700"/>
<path d="M15.6684 20.8784C15.6684 20.2946 15.1951 19.8213 14.6113 19.8213H4.71821C4.13438 19.8213 3.66113 20.2946 3.66113 20.8784V22.6795H15.6684V20.8784H15.6684Z" fill="#FFE02F"/>
<path d="M8.12265 19.8213H4.71821C4.13438 19.8213 3.66113 20.2945 3.66113 20.8784V22.6796H7.06557V20.8784C7.06557 20.2945 7.53887 19.8213 8.12265 19.8213Z" fill="#FBC700"/>
<path d="M15.7793 22.583H3.66098C3.38709 22.583 3.16504 22.8051 3.16504 23.0789V23.5041C3.16504 23.778 3.38709 24 3.66098 24H15.7793C16.0532 24 16.2752 23.778 16.2752 23.5041V23.0789C16.2753 22.805 16.0532 22.583 15.7793 22.583Z" fill="#FBC700"/>
<path d="M6.56948 23.5041V23.0789C6.56948 22.805 6.79152 22.583 7.06537 22.583H3.66093C3.38704 22.583 3.16504 22.8051 3.16504 23.0789V23.5041C3.16504 23.778 3.38709 24 3.66093 24H7.06537C6.79148 24 6.56948 23.778 6.56948 23.5041Z" fill="#FFA812"/>
</svg>
