<svg width="30" height="36" viewBox="0 0 30 36" fill="none" xmlns="http://www.w3.org/2000/svg">
<path d="M30 9.88856L18.9362 6.79179L19.3262 8.26979L28.617 10.9091C28.3688 29.4545 20.1773 31.1789 15.0709 34.4164C3.46808 29.6023 1.4539 20.129 1.4539 10.9091L10.7801 8.26979L11.1702 6.79179L0 9.88856C0.319149 25.3724 4.60993 30.7918 15.0709 36C29.3617 30.1935 30 17.912 30 9.88856Z" fill="#FFC107"/>
<path d="M15.0709 0L14.0426 2.92082H10.7447L13.2979 4.92669L12.305 8.16422L15 6.12317L17.8014 8.16422L16.7376 4.92669L19.3972 2.92082H16.1348L15.0709 0Z" fill="#FFC107"/>
<path fill-rule="evenodd" clip-rule="evenodd" d="M7.65957 10.2757H22.4468C22.5532 12.5513 22.617 17.8135 22.0213 20.6569C22.4468 20.3402 24.8227 17.7361 24.9645 14.1114H23.3333V12.4223H26.5248C26.6667 15.0264 25.6028 21.2903 20.6028 23.0147C20.1418 24 19.1489 25.1613 16.4894 26.9912V20.1642H14.7163V29.5953L16.7376 28.3284C17.0804 28.8915 18.0638 30.0246 19.2553 30.0528V31.2141H10.7092V30.1232C11.6667 30.0528 13.9362 28.7859 13.1915 26.6745V21.3255H11.2766V25.0205C10.7447 24.5513 9.62411 23.4792 9.39716 22.9443C8.7234 22.8035 3.75887 21.3255 3.5461 12.4223H7.65957V10.2757ZM17.766 13.1965L18.5816 13.9355L15.4965 17.4897C15 17.0323 14 16.1103 13.9716 16.0821C13.7163 15.8569 13.4161 15.9883 13.2979 16.0821L9.92908 19.3548V21.3255L13.5816 17.5601L15.6028 19.4604L19.7163 14.7801L20.6028 15.4839L20.5674 12.4927L17.766 13.1965ZM17.766 17.7009H19.5745V23.0147C19.3972 23.3196 18.7872 24.1196 17.766 24.8798V17.7009ZM7.62411 14.1114H5.10638C5.44533 18.0133 7.30496 20.2698 8.04965 20.53C8.07647 20.5521 8.10021 20.571 8.12057 20.5865C7.80851 19.7419 7.65957 18.6158 7.62411 18.1584V14.1114Z" fill="#FFC107"/>
</svg>
